<svg width="350" height="344" viewBox="0 0 350 344" fill="none" xmlns="http://www.w3.org/2000/svg">
<path d="M182.847 90.689L157.272 23.8356L204.887 22.5887L182.847 90.689Z" fill="#E1701E"/>
<rect x="78.4346" y="144" width="177" height="270" rx="21" transform="rotate(18 78.4346 144)" fill="#8DD346"/>
<rect x="132.936" y="64" width="129" height="126" rx="58" transform="rotate(18 132.936 64)" fill="#9A4E4E"/>
<path d="M169 127.5C169 134.404 163.404 140 156.5 140C149.596 140 144 134.404 144 127.5C144 120.596 149.596 115 156.5 115C163.404 115 169 120.596 169 127.5Z" fill="#FAFAFA"/>
<path d="M169 127.5C169 134.404 163.404 140 156.5 140C149.596 140 144 134.404 144 127.5C144 120.596 149.596 115 156.5 115C163.404 115 169 120.596 169 127.5Z" fill="#FAFAFA"/>
<path d="M169 127.5C169 134.404 163.404 140 156.5 140C149.596 140 144 134.404 144 127.5C144 120.596 149.596 115 156.5 115C163.404 115 169 120.596 169 127.5Z" fill="#FAFAFA"/>
<path d="M169 127.5C169 134.404 163.404 140 156.5 140C149.596 140 144 134.404 144 127.5C144 120.596 149.596 115 156.5 115C163.404 115 169 120.596 169 127.5Z" fill="#FAFAFA"/>
<circle cx="205.5" cy="143.5" r="12.5" fill="#FAFAFA"/>
<circle cx="205.5" cy="143.5" r="12.5" fill="#FAFAFA"/>
<circle cx="205.5" cy="143.5" r="12.5" fill="#FAFAFA"/>
<circle cx="205.5" cy="143.5" r="12.5" fill="#FAFAFA"/>
<path fill-rule="evenodd" clip-rule="evenodd" d="M145.1 156C141.179 169.239 148.732 183.149 161.971 187.071C175.209 190.992 189.12 183.439 193.041 170.201L145.1 156Z" fill="#E86868"/>
<circle cx="160.5" cy="124.5" r="5.5" fill="#3D3C3C"/>
<circle cx="160.5" cy="124.5" r="5.5" fill="#3D3C3C"/>
<circle cx="160.5" cy="124.5" r="5.5" fill="#3D3C3C"/>
<circle cx="210.5" cy="139.5" r="5.5" fill="#3D3C3C"/>
<circle cx="210.5" cy="139.5" r="5.5" fill="#3D3C3C"/>
<circle cx="210.5" cy="139.5" r="5.5" fill="#3D3C3C"/>
<rect x="151.978" y="42" width="117" height="56" rx="12" transform="rotate(22 151.978 42)" fill="#F0802F"/>
<rect x="208" y="228.023" width="144.067" height="26" rx="13" transform="rotate(-25.5 208 228.023)" fill="#8DD346"/>
<path fill-rule="evenodd" clip-rule="evenodd" d="M332.6 197.137C326.119 200.228 318.36 197.481 315.269 191.001V191.001C312.178 184.52 314.926 176.761 321.406 173.67L326.44 171.269C332.92 168.178 340.679 170.926 343.77 177.406V177.406C346.861 183.887 344.113 191.646 337.633 194.737L332.6 197.137Z" fill="#9A4E4E"/>

<g id="hand-1">
<rect x="65.9849" y="211.305" width="144.067" height="26" rx="13" transform="rotate(-113.5 65.9849 211.305)" fill="#8DD346"/>
<path fill-rule="evenodd" clip-rule="evenodd" d="M39.467 85.7033C42.3299 92.2875 39.3131 99.9459 32.7289 102.809V102.809C26.1447 105.672 18.4863 102.655 15.6234 96.0708L13.3997 90.9566C10.5368 84.3724 13.5535 76.714 20.1377 73.8511V73.8511C26.722 70.9882 34.3804 74.0049 37.2433 80.5891L39.467 85.7033Z" fill="#9A4E4E"/>
</g>

<path fill-rule="evenodd" clip-rule="evenodd" d="M255.311 86.6028C257.022 89.6662 257.38 93.4489 255.963 96.9552L243.976 126.625C241.493 132.77 234.499 135.739 228.354 133.256L142.126 98.4176C138.33 96.8837 135.746 93.6277 134.91 89.9139C151.335 76.2987 173.555 69.9694 196.088 74.5539L255.311 86.6028Z" fill="#E26D19"/>
</svg>
